<svg width="113" height="46" viewBox="0 0 113 46" fill="none" xmlns="http://www.w3.org/2000/svg">
<g filter="url(#filter0_d_2263_1169)">
<path d="M43.744 35.9464C43.7653 36.0744 43.776 36.2024 43.776 36.3304C43.7973 36.4371 43.808 36.5651 43.808 36.7144C43.808 36.9704 43.7333 37.2051 43.584 37.4184C43.52 37.5251 43.4347 37.6318 43.328 37.7384C43.2213 37.8238 43.0933 37.8984 42.944 37.9624C42.4107 38.2611 41.8453 38.3678 41.248 38.2824C40.9493 38.1971 40.6827 38.0584 40.448 37.8664C40.4053 37.8238 40.3733 37.8024 40.352 37.8024C40.3307 37.7811 40.3093 37.7491 40.288 37.7064C40.2667 37.6851 40.2453 37.6638 40.224 37.6424C40.2027 37.5998 40.1707 37.5678 40.128 37.5464C40.0213 37.4398 39.936 37.3438 39.872 37.2584C39.808 37.1518 39.744 37.0451 39.68 36.9384C39.6373 36.8318 39.584 36.7358 39.52 36.6504C39.4773 36.5438 39.424 36.4371 39.36 36.3304C39.3173 36.2451 39.2747 36.1704 39.232 36.1064C39.1893 36.0211 39.1573 35.9358 39.136 35.8504C39.0507 35.6584 38.9973 35.4878 38.976 35.3384L38.304 33.7704C36.832 33.7704 35.36 33.7811 33.888 33.8024C32.4373 33.8024 30.976 33.7918 29.504 33.7704L28.832 35.3384C28.7893 35.4238 28.7573 35.5091 28.736 35.5944C28.736 35.6798 28.7147 35.7651 28.672 35.8504C28.6293 35.9358 28.5867 36.0211 28.544 36.1064C28.5227 36.1704 28.4907 36.2451 28.448 36.3304C28.384 36.4371 28.32 36.5438 28.256 36.6504C28.2133 36.7358 28.16 36.8318 28.096 36.9384C28.0533 37.0451 28 37.1518 27.936 37.2584C27.872 37.3438 27.7867 37.4398 27.68 37.5464C27.6373 37.5678 27.6053 37.5998 27.584 37.6424C27.5627 37.6638 27.5413 37.6851 27.52 37.7064C27.4987 37.7491 27.4773 37.7811 27.456 37.8024C27.4347 37.8024 27.4027 37.8238 27.36 37.8664C27.1253 38.0584 26.8587 38.1971 26.56 38.2824C25.9627 38.3678 25.3973 38.2611 24.864 37.9624C24.7147 37.8984 24.5867 37.8238 24.48 37.7384C24.3733 37.6318 24.288 37.5251 24.224 37.4184C24.0747 37.2051 24 36.9704 24 36.7144C24 36.5651 24 36.4371 24 36.3304C24.0213 36.2024 24.0427 36.0744 24.064 35.9464C24.1067 35.7544 24.16 35.5624 24.224 35.3704C24.288 35.1784 24.32 35.0824 24.32 35.0824L30.976 18.6984L31.168 18.1864C31.2107 18.0584 31.264 17.9411 31.328 17.8344C31.392 17.7278 31.4453 17.5998 31.488 17.4504C31.5947 17.1731 31.712 16.9278 31.84 16.7144C31.904 16.5864 31.9787 16.4691 32.064 16.3624C32.1493 16.2558 32.2347 16.1491 32.32 16.0424C32.448 15.8718 32.6293 15.7331 32.864 15.6264C33.1627 15.5198 33.504 15.4664 33.888 15.4664C34.2933 15.4664 34.6453 15.5198 34.944 15.6264C35.1787 15.7331 35.36 15.8718 35.488 16.0424C35.6373 16.2344 35.7973 16.4584 35.968 16.7144C36.096 16.9278 36.2133 17.1731 36.32 17.4504C36.3627 17.5998 36.416 17.7278 36.48 17.8344C36.544 17.9411 36.5973 18.0584 36.64 18.1864L36.832 18.6984L43.488 35.0824C43.488 35.0824 43.52 35.1784 43.584 35.3704C43.648 35.5624 43.7013 35.7544 43.744 35.9464ZM36.16 28.1064C35.8827 27.4878 35.5947 26.8478 35.296 26.1864C35.0187 25.5251 34.72 24.8531 34.4 24.1704C34.3147 23.9784 34.2293 23.7864 34.144 23.5944C34.0587 23.3811 33.9733 23.1784 33.888 22.9864C33.824 23.1784 33.7493 23.3811 33.664 23.5944C33.5787 23.7864 33.4933 23.9784 33.408 24.1704C33.088 24.8531 32.7787 25.5251 32.48 26.1864C32.2027 26.8478 31.9253 27.4878 31.648 28.1064L31.072 29.5144H36.736L36.16 28.1064Z" fill="#009AF0"/>
<path d="M63.591 20.1704C63.2923 20.6184 62.983 21.0558 62.663 21.4824C62.343 21.9091 62.0337 22.3358 61.735 22.7624C60.391 24.6824 59.047 26.5918 57.703 28.4904C56.3803 30.3891 55.0577 32.3091 53.735 34.2504C54.055 34.2504 54.3003 34.2504 54.471 34.2504C54.6417 34.2504 54.7803 34.2504 54.887 34.2504C55.015 34.2504 55.1537 34.2504 55.303 34.2504C55.4523 34.2504 55.6763 34.2611 55.975 34.2824C56.2737 34.2824 56.679 34.2824 57.191 34.2824C57.7243 34.2824 58.4283 34.2824 59.303 34.2824C59.8577 34.2824 60.4017 34.2824 60.935 34.2824C61.4897 34.2824 62.0443 34.3038 62.599 34.3464C62.7057 34.3678 62.823 34.3891 62.951 34.4104C63.079 34.4104 63.1963 34.4318 63.303 34.4744L63.495 34.5704C63.495 34.5704 63.559 34.5918 63.687 34.6344C63.943 34.7838 64.1563 34.9544 64.327 35.1464C64.6257 35.5731 64.711 36.0531 64.583 36.5864C64.5617 36.7358 64.5083 36.8744 64.423 37.0024C64.359 37.1091 64.2843 37.2051 64.199 37.2904C64.0283 37.4611 63.8257 37.5784 63.591 37.6424C63.3563 37.7704 63.111 37.8451 62.855 37.8664C62.7483 37.8878 62.6417 37.9091 62.535 37.9304C62.4497 37.9304 62.3537 37.9304 62.247 37.9304H50.631C50.503 37.9304 50.375 37.9304 50.247 37.9304C50.119 37.9304 49.991 37.9198 49.863 37.8984C49.799 37.8771 49.735 37.8664 49.671 37.8664C49.6283 37.8664 49.5857 37.8558 49.543 37.8344C49.4577 37.8131 49.3723 37.8024 49.287 37.8024C49.223 37.7811 49.1377 37.7598 49.031 37.7384C48.7963 37.6104 48.615 37.4931 48.487 37.3864C48.231 37.1944 48.0923 36.9918 48.071 36.7784V36.7464C48.0283 36.6398 47.9963 36.5438 47.975 36.4584C47.975 36.3731 47.9857 36.2664 48.007 36.1384C48.007 36.1171 47.9963 36.1064 47.975 36.1064C47.975 36.0851 47.975 36.0531 47.975 36.0104C47.975 35.8824 47.9963 35.7651 48.039 35.6584C48.0817 35.5304 48.1243 35.4024 48.167 35.2744C48.2097 35.2104 48.2417 35.1464 48.263 35.0824C48.3057 34.9971 48.359 34.9224 48.423 34.8584C48.4657 34.7518 48.519 34.6451 48.583 34.5384C48.6683 34.4318 48.7323 34.3251 48.775 34.2184C48.8177 34.1331 48.8603 34.0478 48.903 33.9624C48.967 33.8558 49.0203 33.7704 49.063 33.7064C49.1483 33.6211 49.2123 33.5464 49.255 33.4824C49.319 33.3971 49.3723 33.3118 49.415 33.2264L51.079 30.8904L54.055 26.5704C54.5243 25.9518 54.983 25.3118 55.431 24.6504C55.9003 23.9678 56.3803 23.2638 56.871 22.5384C57.2337 21.9838 57.5643 21.5038 57.863 21.0984C58.1617 20.6718 58.4817 20.2131 58.823 19.7224C58.0763 19.7224 57.3723 19.7224 56.711 19.7224C56.071 19.7224 55.431 19.7224 54.791 19.7224C54.151 19.7011 53.479 19.6904 52.775 19.6904C52.0923 19.6691 51.335 19.6478 50.503 19.6264C50.2043 19.6051 49.8523 19.5624 49.447 19.4984C49.063 19.4131 48.743 19.2531 48.487 19.0184C48.2523 18.8051 48.1137 18.5811 48.071 18.3464C48.007 18.1331 47.975 17.8771 47.975 17.5784C47.975 17.2371 48.071 16.9384 48.263 16.6824C48.4763 16.4051 48.743 16.2024 49.063 16.0744C49.511 15.9038 49.9483 15.8184 50.375 15.8184C50.6097 15.7971 50.8443 15.7864 51.079 15.7864C51.3137 15.7864 51.5377 15.7651 51.751 15.7224H51.911C52.5297 15.7011 53.447 15.7011 54.663 15.7224C55.9003 15.7224 57.447 15.7224 59.303 15.7224C59.5377 15.7224 59.783 15.7224 60.039 15.7224C60.295 15.7011 60.5403 15.7011 60.775 15.7224C61.2657 15.7651 61.7777 15.7758 62.311 15.7544C62.8657 15.7331 63.367 15.8504 63.815 16.1064C63.943 16.1704 64.0603 16.2451 64.167 16.3304C64.2737 16.4158 64.391 16.4904 64.519 16.5544C64.775 16.7891 64.8923 17.0664 64.871 17.3864C64.871 17.7064 64.7963 18.0371 64.647 18.3784C64.519 18.7198 64.3483 19.0504 64.135 19.3704C63.9217 19.6904 63.7403 19.9571 63.591 20.1704Z" fill="#009AF0"/>
</g>
<g filter="url(#filter1_d_2263_1169)">
<path d="M84.616 20.1704C84.3173 20.6184 84.008 21.0558 83.688 21.4824C83.368 21.9091 83.0587 22.3358 82.76 22.7624C81.416 24.6824 80.072 26.5918 78.728 28.4904C77.4053 30.3891 76.0827 32.3091 74.76 34.2504C75.08 34.2504 75.3253 34.2504 75.496 34.2504C75.6667 34.2504 75.8053 34.2504 75.912 34.2504C76.04 34.2504 76.1787 34.2504 76.328 34.2504C76.4773 34.2504 76.7013 34.2611 77 34.2824C77.2987 34.2824 77.704 34.2824 78.216 34.2824C78.7493 34.2824 79.4533 34.2824 80.328 34.2824C80.8827 34.2824 81.4267 34.2824 81.96 34.2824C82.5147 34.2824 83.0693 34.3038 83.624 34.3464C83.7307 34.3678 83.848 34.3891 83.976 34.4104C84.104 34.4104 84.2213 34.4318 84.328 34.4744L84.52 34.5704C84.52 34.5704 84.584 34.5918 84.712 34.6344C84.968 34.7838 85.1813 34.9544 85.352 35.1464C85.6507 35.5731 85.736 36.0531 85.608 36.5864C85.5867 36.7358 85.5333 36.8744 85.448 37.0024C85.384 37.1091 85.3093 37.2051 85.224 37.2904C85.0533 37.4611 84.8507 37.5784 84.616 37.6424C84.3813 37.7704 84.136 37.8451 83.88 37.8664C83.7733 37.8878 83.6667 37.9091 83.56 37.9304C83.4747 37.9304 83.3787 37.9304 83.272 37.9304H71.656C71.528 37.9304 71.4 37.9304 71.272 37.9304C71.144 37.9304 71.016 37.9198 70.888 37.8984C70.824 37.8771 70.76 37.8664 70.696 37.8664C70.6533 37.8664 70.6107 37.8558 70.568 37.8344C70.4827 37.8131 70.3973 37.8024 70.312 37.8024C70.248 37.7811 70.1627 37.7598 70.056 37.7384C69.8213 37.6104 69.64 37.4931 69.512 37.3864C69.256 37.1944 69.1173 36.9918 69.096 36.7784V36.7464C69.0533 36.6398 69.0213 36.5438 69 36.4584C69 36.3731 69.0107 36.2664 69.032 36.1384C69.032 36.1171 69.0213 36.1064 69 36.1064C69 36.0851 69 36.0531 69 36.0104C69 35.8824 69.0213 35.7651 69.064 35.6584C69.1067 35.5304 69.1493 35.4024 69.192 35.2744C69.2347 35.2104 69.2667 35.1464 69.288 35.0824C69.3307 34.9971 69.384 34.9224 69.448 34.8584C69.4907 34.7518 69.544 34.6451 69.608 34.5384C69.6933 34.4318 69.7573 34.3251 69.8 34.2184C69.8427 34.1331 69.8853 34.0478 69.928 33.9624C69.992 33.8558 70.0453 33.7704 70.088 33.7064C70.1733 33.6211 70.2373 33.5464 70.28 33.4824C70.344 33.3971 70.3973 33.3118 70.44 33.2264L72.104 30.8904L75.08 26.5704C75.5493 25.9518 76.008 25.3118 76.456 24.6504C76.9253 23.9678 77.4053 23.2638 77.896 22.5384C78.2587 21.9838 78.5893 21.5038 78.888 21.0984C79.1867 20.6718 79.5067 20.2131 79.848 19.7224C79.1013 19.7224 78.3973 19.7224 77.736 19.7224C77.096 19.7224 76.456 19.7224 75.816 19.7224C75.176 19.7011 74.504 19.6904 73.8 19.6904C73.1173 19.6691 72.36 19.6478 71.528 19.6264C71.2293 19.6051 70.8773 19.5624 70.472 19.4984C70.088 19.4131 69.768 19.2531 69.512 19.0184C69.2773 18.8051 69.1387 18.5811 69.096 18.3464C69.032 18.1331 69 17.8771 69 17.5784C69 17.2371 69.096 16.9384 69.288 16.6824C69.5013 16.4051 69.768 16.2024 70.088 16.0744C70.536 15.9038 70.9733 15.8184 71.4 15.8184C71.6347 15.7971 71.8693 15.7864 72.104 15.7864C72.3387 15.7864 72.5627 15.7651 72.776 15.7224H72.936C73.5547 15.7011 74.472 15.7011 75.688 15.7224C76.9253 15.7224 78.472 15.7224 80.328 15.7224C80.5627 15.7224 80.808 15.7224 81.064 15.7224C81.32 15.7011 81.5653 15.7011 81.8 15.7224C82.2907 15.7651 82.8027 15.7758 83.336 15.7544C83.8907 15.7331 84.392 15.8504 84.84 16.1064C84.968 16.1704 85.0853 16.2451 85.192 16.3304C85.2987 16.4158 85.416 16.4904 85.544 16.5544C85.8 16.7891 85.9173 17.0664 85.896 17.3864C85.896 17.7064 85.8213 18.0371 85.672 18.3784C85.544 18.7198 85.3733 19.0504 85.16 19.3704C84.9467 19.6904 84.7653 19.9571 84.616 20.1704Z" fill="#323232"/>
<path d="M107.316 16.8424C107.337 16.9491 107.337 17.0558 107.316 17.1624C107.316 17.2691 107.284 17.3864 107.22 17.5144C107.135 17.8131 107.039 18.0798 106.932 18.3144C106.804 18.6131 106.644 18.8691 106.452 19.0824C106.367 19.2104 106.281 19.3384 106.196 19.4664C106.132 19.5731 106.068 19.6798 106.004 19.7864L105.588 20.3304L101.492 26.2504L100.756 27.1784V35.6904C100.713 35.7971 100.692 35.9038 100.692 36.0104C100.692 36.1171 100.681 36.2344 100.66 36.3624C100.617 36.4691 100.585 36.5758 100.564 36.6824C100.543 36.7678 100.511 36.8638 100.468 36.9704C100.425 37.0558 100.404 37.1198 100.404 37.1624C100.383 37.2051 100.361 37.2371 100.34 37.2584C100.34 37.2798 100.329 37.3118 100.308 37.3544C100.18 37.5678 99.9987 37.7598 99.764 37.9304C99.2947 38.1651 98.7613 38.2184 98.164 38.0904C97.8227 38.0478 97.5667 37.9411 97.396 37.7704C97.2893 37.7064 97.204 37.6318 97.14 37.5464C97.076 37.4611 97.012 37.3651 96.948 37.2584C96.9053 37.1304 96.8627 37.0131 96.82 36.9064C96.7773 36.7998 96.7453 36.6931 96.724 36.5864C96.6813 36.4798 96.66 36.3838 96.66 36.2984C96.66 36.1918 96.66 36.0958 96.66 36.0104V27.2744L95.956 26.1864L91.796 20.2984L91.444 19.7224C91.316 19.5304 91.156 19.3064 90.964 19.0504C90.7933 18.8158 90.644 18.5598 90.516 18.2824C90.4307 18.1544 90.356 18.0264 90.292 17.8984C90.2493 17.7491 90.2067 17.5998 90.164 17.4504C90.1 17.2371 90.0893 17.0238 90.132 16.8104C90.196 16.5331 90.324 16.2984 90.516 16.1064C90.7293 15.9144 90.9533 15.7651 91.188 15.6584C91.4867 15.4451 91.828 15.3598 92.212 15.4024C92.4467 15.4024 92.6493 15.4451 92.82 15.5304C92.9907 15.6158 93.1613 15.7118 93.332 15.8184C93.524 15.9678 93.7053 16.1278 93.876 16.2984C94.068 16.4691 94.2387 16.6504 94.388 16.8424C94.5587 17.0558 94.7187 17.2584 94.868 17.4504C95.0173 17.6211 95.1667 17.8238 95.316 18.0584L95.412 18.1864C95.924 18.8691 96.404 19.5304 96.852 20.1704C97.3 20.7891 97.7693 21.4611 98.26 22.1864C98.3027 22.2291 98.3667 22.3144 98.452 22.4424C98.5373 22.5704 98.6333 22.7198 98.74 22.8904C98.8253 22.7411 98.9 22.6131 98.964 22.5064C99.0493 22.3784 99.1133 22.2931 99.156 22.2504C99.6467 21.5251 100.116 20.8424 100.564 20.2024C101.012 19.5624 101.492 18.9011 102.004 18.2184L102.068 18.0904C102.239 17.8984 102.388 17.7064 102.516 17.5144C102.665 17.3011 102.825 17.0878 102.996 16.8744C103.273 16.4904 103.647 16.1598 104.116 15.8824C104.457 15.6478 104.809 15.4984 105.172 15.4344C105.577 15.3918 105.929 15.4771 106.228 15.6904C106.356 15.7758 106.473 15.8504 106.58 15.9144C106.708 15.9784 106.815 16.0531 106.9 16.1384C107.071 16.3304 107.209 16.5651 107.316 16.8424Z" fill="#323232"/>
</g>
<g filter="url(#filter2_d_2263_1169)">
<path d="M9.384 19.3064L9.32 24.3304H10.6C11.4747 24.3091 12.2533 24.2984 12.936 24.2984C13.6187 24.2984 14.376 24.3091 15.208 24.3304H15.368C15.624 24.3304 15.8693 24.3411 16.104 24.3624C16.36 24.3624 16.6053 24.3624 16.84 24.3624C17.096 24.3838 17.3413 24.4264 17.576 24.4904C17.8107 24.5331 18.0453 24.5864 18.28 24.6504C18.6427 24.7784 18.9413 24.9704 19.176 25.2264C19.3893 25.5038 19.496 25.8131 19.496 26.1544C19.496 26.2611 19.496 26.3891 19.496 26.5384C19.496 26.6664 19.4747 26.7838 19.432 26.8904C19.3893 27.1251 19.2507 27.3384 19.016 27.5304C18.9093 27.6798 18.7067 27.7864 18.408 27.8504C18.1307 27.9358 17.8533 27.9891 17.576 28.0104C17.2773 28.0744 16.9787 28.1064 16.68 28.1064H15.176L9.256 28.1384L9.192 34.4104L15.56 34.4744H17.064C17.2347 34.4744 17.3947 34.4744 17.544 34.4744C17.6933 34.4744 17.832 34.4851 17.96 34.5064C18.1307 34.5491 18.28 34.5811 18.408 34.6024C18.5573 34.6024 18.696 34.6238 18.824 34.6664C19.08 34.7518 19.2933 34.8691 19.464 35.0184C19.6773 35.2318 19.816 35.4558 19.88 35.6904C19.9013 35.7971 19.912 35.9144 19.912 36.0424C19.9333 36.1491 19.9333 36.2664 19.912 36.3944C19.912 36.7358 19.8053 37.0451 19.592 37.3224C19.336 37.6211 19.0373 37.8131 18.696 37.8984C18.248 38.0904 17.7573 38.1864 17.224 38.1864C16.9893 38.2078 16.744 38.2184 16.488 38.2184C16.232 38.2184 15.9867 38.2291 15.752 38.2504H15.56C13.896 38.2931 12.168 38.2931 10.376 38.2504C9.94933 38.2504 9.608 38.2398 9.352 38.2184C9.096 38.2184 8.86133 38.2184 8.648 38.2184C8.456 38.2184 8.25333 38.2184 8.04 38.2184C7.82667 38.2184 7.54933 38.2184 7.208 38.2184C6.71733 38.2611 6.312 38.1758 5.992 37.9624C5.75733 37.8131 5.576 37.6104 5.448 37.3544C5.384 37.2904 5.352 37.2264 5.352 37.1624C5.33067 37.1198 5.30933 37.0878 5.288 37.0664C5.26667 37.0451 5.24533 37.0131 5.224 36.9704C5.18133 36.8638 5.14933 36.7571 5.128 36.6504C5.10667 36.5224 5.096 36.4051 5.096 36.2984C5.07467 36.1918 5.05333 36.0851 5.032 35.9784C5.032 35.8718 5.02133 35.7651 5 35.6584V35.1464C5 35.0611 5 34.9758 5 34.8904C5.02133 34.8051 5.032 34.7198 5.032 34.6344V32.1384L5.096 27.5304V23.2744C5.096 22.5064 5.096 21.8238 5.096 21.2264C5.11733 20.6291 5.13867 19.9784 5.16 19.2744V19.1144C5.18133 18.8798 5.192 18.6664 5.192 18.4744C5.21333 18.2611 5.224 18.0478 5.224 17.8344C5.24533 17.4078 5.36267 16.9918 5.576 16.5864C5.66133 16.4158 5.74667 16.2664 5.832 16.1384C5.93867 16.0104 6.07733 15.9038 6.248 15.8184C6.568 15.6264 6.89867 15.5304 7.24 15.5304C7.41067 15.5304 7.53867 15.5411 7.624 15.5624V15.5304C8.008 15.5304 8.31733 15.5304 8.552 15.5304C8.78667 15.5304 9.01067 15.5304 9.224 15.5304C9.45867 15.5304 9.704 15.5304 9.96 15.5304C10.216 15.5091 10.568 15.4984 11.016 15.4984C11.8693 15.4771 12.68 15.4664 13.448 15.4664C14.216 15.4664 15.0053 15.4771 15.816 15.4984H15.944C16.1787 15.5198 16.424 15.5304 16.68 15.5304C16.936 15.5304 17.1813 15.5411 17.416 15.5624C17.6507 15.5624 17.8853 15.5944 18.12 15.6584C18.3547 15.7011 18.5893 15.7651 18.824 15.8504C19.1867 15.9571 19.4853 16.1384 19.72 16.3944C19.912 16.6931 20.008 16.9918 20.008 17.2904C20.008 17.4184 20.008 17.5464 20.008 17.6744C20.008 17.7811 19.9867 17.8878 19.944 17.9944C19.9227 18.2078 19.7947 18.4318 19.56 18.6664C19.4747 18.7091 19.3787 18.7624 19.272 18.8264C19.1867 18.8904 19.08 18.9438 18.952 18.9864C18.824 19.0291 18.6853 19.0611 18.536 19.0824C18.408 19.0824 18.28 19.0931 18.152 19.1144C17.9813 19.1571 17.8213 19.1784 17.672 19.1784C17.544 19.1784 17.3947 19.1784 17.224 19.1784H15.784L9.384 19.2104V19.3064Z" fill="#323232"/>
</g>
<g filter="url(#filter3_d_2263_1169)">
<path fill-rule="evenodd" clip-rule="evenodd" d="M58.4283 11.1623C57.854 12.1058 56.6236 12.4051 55.68 11.8308L49.8994 8.3122C47.0251 6.56258 43.4148 6.56258 40.5404 8.3122L34.7598 11.8308C33.8163 12.4051 32.5858 12.1058 32.0115 11.1623C31.4372 10.2188 31.7365 8.98834 32.68 8.41402L38.4606 4.89541C42.6125 2.36818 47.8274 2.36818 51.9792 4.89541L57.7598 8.41402C58.7033 8.98834 59.0026 10.2188 58.4283 11.1623Z" fill="#D13F36"/>
</g>
<defs>
<filter id="filter0_d_2263_1169" x="19" y="12.4664" width="50.8735" height="32.8445" filterUnits="userSpaceOnUse" color-interpolation-filters="sRGB">
<feFlood flood-opacity="0" result="BackgroundImageFix"/>
<feColorMatrix in="SourceAlpha" type="matrix" values="0 0 0 0 0 0 0 0 0 0 0 0 0 0 0 0 0 0 127 0" result="hardAlpha"/>
<feOffset dy="2"/>
<feGaussianBlur stdDeviation="2.5"/>
<feComposite in2="hardAlpha" operator="out"/>
<feColorMatrix type="matrix" values="0 0 0 0 0 0 0 0 0 0 0 0 0 0 0 0 0 0 0.35 0"/>
<feBlend mode="normal" in2="BackgroundImageFix" result="effect1_dropShadow_2263_1169"/>
<feBlend mode="normal" in="SourceGraphic" in2="effect1_dropShadow_2263_1169" result="shape"/>
</filter>
<filter id="filter1_d_2263_1169" x="64" y="12.3918" width="48.332" height="32.7664" filterUnits="userSpaceOnUse" color-interpolation-filters="sRGB">
<feFlood flood-opacity="0" result="BackgroundImageFix"/>
<feColorMatrix in="SourceAlpha" type="matrix" values="0 0 0 0 0 0 0 0 0 0 0 0 0 0 0 0 0 0 127 0" result="hardAlpha"/>
<feOffset dy="2"/>
<feGaussianBlur stdDeviation="2.5"/>
<feComposite in2="hardAlpha" operator="out"/>
<feColorMatrix type="matrix" values="0 0 0 0 0 0 0 0 0 0 0 0 0 0 0 0 0 0 0.35 0"/>
<feBlend mode="normal" in2="BackgroundImageFix" result="effect1_dropShadow_2263_1169"/>
<feBlend mode="normal" in="SourceGraphic" in2="effect1_dropShadow_2263_1169" result="shape"/>
</filter>
<filter id="filter2_d_2263_1169" x="0" y="12.4664" width="25.0081" height="32.816" filterUnits="userSpaceOnUse" color-interpolation-filters="sRGB">
<feFlood flood-opacity="0" result="BackgroundImageFix"/>
<feColorMatrix in="SourceAlpha" type="matrix" values="0 0 0 0 0 0 0 0 0 0 0 0 0 0 0 0 0 0 127 0" result="hardAlpha"/>
<feOffset dy="2"/>
<feGaussianBlur stdDeviation="2.5"/>
<feComposite in2="hardAlpha" operator="out"/>
<feColorMatrix type="matrix" values="0 0 0 0 0 0 0 0 0 0 0 0 0 0 0 0 0 0 0.35 0"/>
<feBlend mode="normal" in2="BackgroundImageFix" result="effect1_dropShadow_2263_1169"/>
<feBlend mode="normal" in="SourceGraphic" in2="effect1_dropShadow_2263_1169" result="shape"/>
</filter>
<filter id="filter3_d_2263_1169" x="26.7197" y="0" width="37.0005" height="19.1227" filterUnits="userSpaceOnUse" color-interpolation-filters="sRGB">
<feFlood flood-opacity="0" result="BackgroundImageFix"/>
<feColorMatrix in="SourceAlpha" type="matrix" values="0 0 0 0 0 0 0 0 0 0 0 0 0 0 0 0 0 0 127 0" result="hardAlpha"/>
<feOffset dy="2"/>
<feGaussianBlur stdDeviation="2.5"/>
<feComposite in2="hardAlpha" operator="out"/>
<feColorMatrix type="matrix" values="0 0 0 0 0 0 0 0 0 0 0 0 0 0 0 0 0 0 0.35 0"/>
<feBlend mode="normal" in2="BackgroundImageFix" result="effect1_dropShadow_2263_1169"/>
<feBlend mode="normal" in="SourceGraphic" in2="effect1_dropShadow_2263_1169" result="shape"/>
</filter>
</defs>
</svg>
